<svg width="50" height="71" viewBox="0 0 50 71" fill="none" xmlns="http://www.w3.org/2000/svg">
  <mask id="mask0_3335_4423" style="mask-type:alpha" maskUnits="userSpaceOnUse" x="0" y="0" width="50" height="71">
  <ellipse cx="25" cy="35.6992" rx="25" ry="35" fill="#D9D9D9"></ellipse>
  </mask>
  <g mask="url(#mask0_3335_4423)">
  <g clip-path="url(#clip0_3335_4423)">
  <path fill-rule="evenodd" clip-rule="evenodd" d="M-0.798018 1.95016C-0.844097 2.07169 -0.890176 2.34367 -0.993853 2.42758C-1.17529 2.57515 -1.59864 2.53464 -1.78871 2.4189L-1.90679 2.51439C-1.90679 2.905 -2.24086 3.64284 -2.5807 3.95533H-2.60661C-2.57493 3.84249 -2.58934 3.70649 -2.67285 3.60233C-2.81109 3.43451 -3.0674 3.46055 -3.22004 3.58786C-3.40147 3.73832 -3.44755 3.96691 -3.29204 4.15788C-3.23732 4.22443 -3.0962 4.29387 -2.91765 4.30255L-1.82615 4.40671C-2.08823 4.88992 -2.44246 5.72614 -2.03639 6.22381C-1.7628 6.56235 -1.23865 6.53341 -0.910335 6.40031L-0.786498 6.29904L-0.24795 4.74814C-0.00603557 5.04906 0.12356 5.08668 0.310755 5.09247L0.662107 5.10983L0.742745 5.04617L1.01346 4.01899L0.869463 3.99005L0.788825 4.25047L0.261797 4.24468L-0.890175 2.82399L-0.65114 1.99646L-0.798018 1.94727V1.95016ZM-0.70586 5.57857C-1.01977 5.71456 -1.46328 5.79558 -1.71384 5.48887C-1.92119 5.23135 -1.88087 4.95358 -1.76567 4.69027L-1.65336 4.42697L-1.17529 4.47616L-1.16377 4.30834L-2.52022 4.17524C-2.2639 3.93797 -2.06519 3.64284 -1.93847 3.32166L-1.4172 3.31009L-0.377548 4.5919L-0.70586 5.57857Z" fill="black"></path>
  <path fill-rule="evenodd" clip-rule="evenodd" d="M6.70411 2.93673L5.92653 2.8586L3.05812 -2.26284L3.45843 -2.85889L6.70411 2.93673ZM2.95444 -2.44512L2.84788 -2.63609C2.53397 -3.19453 1.78519 -3.37972 1.1948 -3.04407C0.489216 -2.64767 0.399939 -1.8809 0.713851 -1.24433L0.860728 -1.32825C0.79449 -1.71597 0.73977 -2.00821 1.24664 -2.29466C1.58935 -2.48853 2.07606 -2.39594 2.30645 -1.98217L2.91988 -0.888438C2.34965 -0.555689 2.04726 -0.133243 2.32373 0.358647C2.40149 0.497533 2.50517 0.6451 2.61749 0.746372L2.7586 0.668249C2.61749 0.3355 2.67221 0.0345778 2.96884 -0.133243L3.25395 -0.295277L4.16401 1.32796C3.6197 1.843 3.34323 2.56347 3.5333 3.30131L3.6485 3.27816C3.6341 2.65606 3.92209 2.16707 4.46352 1.86325L5.20654 3.18846C5.36206 3.46913 5.35918 3.73243 5.17199 4.10858L5.2699 4.14909L5.90349 3.04379L7.04682 3.20003L5.97261 1.28166L6.72139 1.24984L6.85099 1.17461C6.9921 0.792668 7.30026 0.205294 8.04616 -0.217153C8.17575 -0.292383 8.32839 -0.344465 8.46951 -0.402335L8.36295 -0.593304L7.90216 -0.570157L5.77101 -4.37507L6.14252 -5.13605L5.96685 -5.19971C5.91213 -5.10422 5.86317 -4.9798 5.76525 -4.92483C5.67597 -4.87275 5.57806 -4.87275 5.4715 -4.89011L4.668 -5.01163L4.58736 -4.96534C4.25905 -4.37796 3.85586 -3.80506 3.44979 -3.23794L2.989 -4.05968L2.83348 -3.97288L3.34611 -3.05854L2.95444 -2.44802V-2.44512ZM5.56078 -3.12798C5.36782 -2.856 5.11727 -2.65056 4.82063 -2.48274C4.5816 -2.34964 4.27921 -2.27441 4.00273 -2.24837L3.55922 -3.03829L4.22161 -4.051L5.08847 -3.96709L5.5579 -3.12798H5.56078ZM4.08625 -2.09791C4.39728 -2.1008 4.70832 -2.22233 4.97903 -2.37568C5.2411 -2.52325 5.4715 -2.72868 5.65294 -2.96306L6.55723 -1.3485C6.28652 -1.31378 5.96973 -1.24144 5.73069 -1.10834C5.45134 -0.952095 5.1979 -0.732191 4.99055 -0.483353L4.08625 -2.09791ZM5.07695 -0.327105C5.26126 -0.57305 5.46862 -0.764019 5.73069 -0.914479C6.01005 -1.07073 6.32972 -1.15464 6.64363 -1.19225L7.35497 0.0750871L7.08714 0.390475C6.56011 0.318138 6.03309 0.280524 5.5291 0.480173L5.07695 -0.327105Z" fill="black"></path>
  <path fill-rule="evenodd" clip-rule="evenodd" d="M42.496 -3.86285L42.9914 -3.68924C43.0807 -3.65741 43.1815 -3.71239 43.288 -3.76447L41.7501 0.659646C41.6609 0.627818 41.5399 0.636498 41.4938 0.769598C41.4564 0.876657 41.4996 0.951886 41.6061 0.989501C41.7213 1.03001 41.8135 0.989502 41.8797 0.804319L43.4954 -3.84259L43.7805 -3.9728L43.8295 -4.11458L43.6163 -4.18981L44.175 -5.79568C44.8432 -5.63075 45.4019 -5.91431 45.9001 -6.2297L45.8339 -6.35412C45.5718 -6.25574 45.2608 -6.19498 44.9584 -6.30204C44.7539 -6.37438 44.6157 -6.57403 44.5811 -6.79393L44.4659 -6.83444C43.9706 -6.52773 43.1412 -6.4091 42.522 -6.34544L41.0417 -2.08047C40.9466 -1.81138 40.7767 -1.64066 40.5751 -1.713C40.3793 -1.78244 40.1374 -2.02839 39.8264 -2.33799C39.5153 -2.64759 39.1121 -2.97744 38.5621 -3.17131C37.7528 -3.45487 36.8024 -3.1279 36.5087 -2.28012C36.166 -1.29923 37.0789 -0.619267 37.8766 -0.338601C38.3201 -0.182353 38.7896 -0.098443 39.2446 -0.0376797L39.2532 -0.205501C38.8155 -0.269157 38.3576 -0.350174 37.9141 -0.506422C37.292 -0.723432 36.3704 -1.36868 36.6383 -2.13545C36.8514 -2.75175 37.3467 -2.91668 37.9342 -2.71125C38.1905 -2.62155 38.4526 -2.43058 38.7464 -2.21646C39.0344 -2.00524 39.3512 -1.78244 39.7169 -1.65513C40.5406 -1.36578 41.6666 -1.46995 41.9057 -2.16727L42.496 -3.86285ZM43.5933 -6.33097C43.6826 -6.18919 43.8698 -5.95482 44.0224 -5.87091L43.4579 -4.24768L42.7293 -4.5023L43.3543 -6.29625L43.5933 -6.33097ZM41.5975 -5.65969C41.7271 -6.03295 41.9661 -6.20945 42.0813 -6.19209L42.0986 -6.35702C41.609 -6.34834 40.9265 -6.13711 40.8113 -5.79858L40.6385 -5.29801C40.1662 -5.37324 39.5988 -5.37324 39.4088 -4.82926C39.38 -4.73957 39.3656 -4.67302 39.3598 -4.59779L39.5009 -4.5486C39.6276 -4.77429 39.7745 -4.82348 40.0251 -4.73667L40.3966 -4.60647L40.0798 -3.69502C39.8868 -3.14237 39.6996 -3.17709 39.5758 -3.19156L39.5297 -2.96876C40.1259 -2.908 40.6846 -3.02374 40.8545 -3.51563L41.6033 -5.66548L41.5975 -5.65969ZM39.6593 -6.64926C39.5124 -6.8518 39.4865 -7.12089 39.57 -7.36105C39.6766 -7.66486 40.0423 -7.74588 40.3159 -7.6504C40.6183 -7.54334 40.8113 -7.38709 41.0215 -7.24242C41.2318 -7.10064 41.4276 -6.92124 41.7559 -6.8055C42.2513 -6.6319 42.9741 -6.78814 43.4176 -7.08328L43.3831 -7.21638C43.072 -7.12668 42.856 -7.10064 42.545 -7.21059C42.3204 -7.28871 42.1706 -7.42181 41.9978 -7.55202C41.8164 -7.68801 41.6177 -7.83558 41.2375 -7.96868C40.5377 -8.21462 39.668 -8.14807 39.4289 -7.46232C39.3195 -7.14983 39.3483 -6.86048 39.5326 -6.5856L39.6651 -6.64926H39.6593Z" fill="black"></path>
  <path fill-rule="evenodd" clip-rule="evenodd" d="M48.0167 -1.83733C47.8871 -1.82865 47.6221 -1.75921 47.504 -1.81708C47.2938 -1.92124 47.1556 -2.32633 47.1786 -2.54623L47.0433 -2.61278C46.689 -2.45075 45.8826 -2.44785 45.4564 -2.62725L45.4478 -2.65329C45.5601 -2.67065 45.6782 -2.74009 45.7386 -2.85872C45.8337 -3.05548 45.7012 -3.27828 45.5255 -3.36508C45.3153 -3.46925 45.0878 -3.41427 44.9783 -3.19437C44.9409 -3.11914 44.938 -2.96289 45.0014 -2.79217L45.3614 -1.75053C44.8142 -1.78814 43.9099 -1.7621 43.6277 -1.1863C43.4376 -0.795681 43.6795 -0.326939 43.9358 -0.0838881L44.0798 -0.0115514L45.707 -0.164905C45.537 0.182312 45.5543 0.318305 45.6263 0.489019L45.7588 0.818874L45.851 0.86517L46.8935 0.685774L46.8589 0.541101L46.5911 0.575823L46.378 0.0897202L47.1844 -1.55377L48.034 -1.68108L48.0167 -1.83733ZM44.771 -0.243029C44.5175 -0.471613 44.2584 -0.84487 44.434 -1.19787C44.578 -1.4959 44.8487 -1.57113 45.1339 -1.57981L45.419 -1.5856L45.5716 -1.12843L45.7271 -1.18919L45.2807 -2.48547C45.6004 -2.34658 45.9518 -2.2916 46.2974 -2.30896L46.5277 -1.83733L45.7991 -0.35298L44.7681 -0.243029H44.771Z" fill="black"></path>
  <path fill-rule="evenodd" clip-rule="evenodd" d="M48.2759 1.17168L49.0995 -0.21718L49.6611 -0.353173C49.7014 -0.0869741 49.7907 0.07506 50.024 0.21684C50.2745 0.3673 50.8045 0.286283 50.8621 0.190799C50.9197 0.0924207 50.8736 0.0229777 50.7296 -0.0638263C50.551 -0.170885 50.5021 -0.474699 50.5107 -0.656988L50.3984 -0.723538L49.2205 -0.41683C49.2896 -0.532569 49.4422 -0.824809 49.3558 -1.0505L49.209 -1.43533L49.1024 -1.49609L48.0714 -1.40061L48.1232 -1.19228C48.2212 -1.20964 48.3364 -1.25304 48.4141 -1.20385C48.4804 -1.16624 48.4976 -1.06786 48.5063 -1.0071L48.5725 -0.735112L47.6596 0.807108L46.7495 0.902592L46.8013 1.0762C46.9799 1.05016 47.1729 0.969142 47.3341 1.06463C47.5041 1.1659 47.6135 1.55073 47.6999 1.90952L47.8496 2.00211L49.1139 1.92109L49.0592 1.75617L48.5811 1.76774L48.2759 1.17747V1.17168Z" fill="black"></path>
  <path fill-rule="evenodd" clip-rule="evenodd" d="M51.5563 1.38579L52.6334 1.43209C52.7889 1.71275 52.7745 1.97027 52.6104 2.19886L51.5938 3.58194L51.179 3.57036C51.2568 3.81631 51.4094 4.11723 51.4814 4.41525L51.5563 4.47023L52.7342 4.48759L52.7256 4.34002L52.3627 4.29373L52.236 3.906L53.1748 2.62709L54.226 2.64445L54.4391 3.1537L53.2065 4.83481C52.9934 5.12415 53.1259 5.45401 53.1777 5.67102L53.2612 5.73178L54.3268 5.76072L54.3095 5.56107H53.9927C53.9207 5.34406 53.8459 5.17334 54.0129 4.94476L55.0727 3.50092L55.8157 3.52407L55.8042 3.36492C55.594 3.36492 55.4097 3.3302 55.3031 3.25208C55.1677 3.15081 55.0785 2.79202 55.0986 2.57501L54.9921 2.49688L53.3188 2.46795C53.5377 2.15835 53.5723 2.01078 53.5463 1.83717L53.4772 1.37422L53.3563 1.28452L51.683 1.2064C51.8443 0.986493 51.9624 0.838927 51.9336 0.561154L51.8472 0.167642L51.7205 0.0721572L50.8047 0.0634766L50.7672 0.222618C50.845 0.242872 50.9314 0.237085 50.9861 0.277593C51.0898 0.355717 51.1877 0.671105 51.0063 0.91705L50.0184 2.26251L49.1919 2.2249V2.38693C49.3417 2.41876 49.572 2.38693 49.6498 2.4448C49.7247 2.49978 49.8226 2.97141 49.8543 3.21736L49.9234 3.26944L51.0811 3.3302L51.0696 3.15659L50.7586 3.10162L50.6088 2.67049L51.5506 1.38579H51.5563Z" fill="black"></path>
  <path d="M12.3603 8.21714L12.4121 8.29526C12.9795 9.11122 13.6246 9.88956 14.2409 10.6679C15.269 11.9584 16.3115 13.2431 16.3115 13.2431L16.1013 13.4167C16.1013 13.4167 15.0559 12.1291 14.0278 10.8357C13.4057 10.0545 12.7577 9.27326 12.1875 8.45151C12.1213 8.35603 11.9024 8.08983 12.1155 8.00881C13.1695 7.60951 14.9983 8.37049 15.9804 8.87106C16.0812 8.26633 16.5045 5.7519 17.236 5.56962C17.956 5.38733 19.4651 7.49377 19.8222 7.99434C19.8999 7.34042 20.2052 4.89544 21.003 4.71894C21.8122 4.53954 23.2205 6.61994 23.5863 7.1726C23.7879 6.8167 25.1097 4.42669 25.5964 4.42091C26.112 4.41512 27.1862 7.07133 27.3388 7.4359C27.647 7.05975 29.47 4.79706 30.0431 4.88097C30.5903 4.95909 31.1202 7.41854 31.2152 7.82652C31.6213 7.48509 33.3492 6.021 33.9166 6.26115C34.6135 6.55629 34.7806 9.26458 34.818 9.89825C35.826 9.38321 38.8297 7.95383 39.7859 8.64537L39.7081 8.75532C39.7081 8.75532 39.8521 8.80162 39.7887 8.86528L39.7456 8.90868L39.5843 9.06782L39.0083 9.62915C37.5712 11.0209 36.1341 12.4127 34.6942 13.8015L34.5041 13.6048C34.5041 13.6048 35.7828 12.3693 37.0586 11.1338C37.6979 10.5146 38.3373 9.89824 38.8153 9.4324L39.3913 8.87106L39.4748 8.79005C38.4352 8.4139 35.5265 9.82301 34.5617 10.3381C34.5617 10.3381 34.5185 9.26747 34.3975 8.37628C34.3572 8.06379 34.1527 6.65467 33.8071 6.50999C33.378 6.3277 31.2786 8.12165 31.0424 8.32709C31.0424 8.32709 30.8322 7.35778 30.6162 6.60548C30.5643 6.42608 30.2216 5.26001 29.9999 5.14717C29.6024 5.0893 27.4252 7.75418 27.261 7.95673C27.261 7.95673 26.8492 6.96137 26.4777 6.18014C26.3625 5.93998 25.8556 4.87808 25.6022 4.69868C25.176 4.89544 23.8023 7.32884 23.5978 7.69631C23.5978 7.69631 23.042 6.81959 22.5063 6.15699C22.2932 5.89368 21.4637 4.88965 21.0548 4.98224C20.3694 5.1356 20.0526 8.32998 20.0151 8.75532C20.0151 8.75532 19.3211 7.73393 18.7509 7.05107C18.5665 6.82827 17.645 5.74322 17.2965 5.83003C16.7205 5.9747 16.2424 8.90579 16.1848 9.29062C16.1848 9.29062 15.3669 8.84213 14.5606 8.54989C13.8031 8.27501 12.9478 8.06957 12.3516 8.21714H12.3603Z" fill="black"></path>
  <path d="M12.7748 8.93762C13.6273 8.5036 15.8794 9.9214 16.6195 10.4075C16.6685 9.86353 16.9161 7.09738 17.5613 6.83696C18.2496 6.55919 20.087 9.33403 20.349 9.72465C20.4037 9.27905 20.7177 6.3769 21.3368 6.23223C21.9733 6.08177 23.4565 9.36007 23.6379 9.74779C25.0462 5.54069 25.8324 4.3399 27.0247 9.69282C27.2609 9.27037 29.0867 5.91395 29.7923 6.08177C30.4979 6.24959 30.7081 9.31667 30.7485 9.80566C33.6284 6.07598 33.7954 7.01057 34.1727 11.1251C34.9848 10.6911 38.0923 9.06493 38.8727 9.44977L38.7518 9.69571C38.0894 9.36585 34.6882 11.154 33.9394 11.5591L33.9193 11.3537C33.7119 9.09098 33.5996 7.94516 33.254 7.75419C32.7299 7.46485 30.7629 10.2281 30.5209 10.5435C30.495 10.1124 30.2243 6.46371 29.7261 6.34507C29.4784 6.28431 28.4733 7.80338 28.384 7.94227C27.857 8.75823 27.3732 9.60601 26.9095 10.4625C25.6711 4.70737 25.363 5.38155 23.6753 10.4885C23.468 10.0371 21.8466 6.57366 21.3916 6.49843C21.0114 6.58812 20.6025 9.8346 20.5737 10.1211L20.5333 10.5001C20.0553 9.76805 18.5519 7.5285 17.8089 7.1321C17.711 7.08001 17.6678 7.0858 17.6563 7.08869C17.1667 7.28545 16.8816 10.448 16.847 10.8965C16.1702 10.4307 13.6561 8.79005 12.8929 9.18067L12.769 8.93762H12.7748Z" fill="black"></path>
  <path d="M34.5389 14.7451C34.8988 14.5512 34.9536 14.3689 34.9536 14.2619C34.9536 14.1866 34.9248 14.1172 34.8844 14.0593C32.1917 12.5113 28.3268 11.2382 25.2424 11.3163C19.9549 11.4494 16.8561 12.8296 15.8135 13.7034C15.4507 14.0072 16.2426 14.2648 16.4471 14.3284C19.1283 12.9858 22.7398 12.0107 25.7061 12.0165C28.586 12.0223 31.3479 13.0206 33.8448 14.3747C34.0723 14.4962 34.2998 14.6409 34.536 14.7451H34.5389ZM16.2138 14.5367C15.8395 14.3979 15.0446 13.9899 15.6379 13.4922C16.7466 12.5605 19.9174 11.1745 25.2367 11.0414C28.3412 10.9633 32.3674 12.2625 35.063 13.8452C35.063 13.8452 35.0918 13.8741 35.1033 13.8973C35.1782 14.0015 35.2243 14.1288 35.2243 14.259C35.2243 14.5888 34.7894 15.1531 34.4323 14.9968C34.1875 14.8897 33.9513 14.7422 33.7181 14.6149C28.7819 11.9384 24.7125 11.6259 19.3501 13.443C17.6423 14.0188 16.4759 14.6235 16.4759 14.6235C16.4759 14.6235 16.3377 14.5859 16.2138 14.5396V14.5367Z" fill="black"></path>
  <path d="M16.6601 14.4326L17.766 17.8122L17.5068 17.8961L16.4009 14.5165L16.6601 14.4326Z" fill="black"></path>
  <path d="M34.3814 14.906L33.0156 18.3647L33.2699 18.4661L34.6357 15.0074L34.3814 14.906Z" fill="black"></path>
  <path d="M17.3079 19.0735C17.3079 19.0735 17.256 19.0272 17.1956 18.9491C16.8442 18.4949 16.968 18.0348 17.4979 17.7339C18.385 17.2275 21.6393 16.371 25.5992 16.455C27.7879 16.5041 31.0941 17.2478 33.303 18.2721C33.303 18.2721 33.3635 18.3212 33.424 18.382C33.7552 18.7234 33.7667 19.1285 33.2224 19.3368L33.1273 19.0822C33.5305 18.926 33.3836 18.6974 33.159 18.5093C30.953 17.5053 27.9838 16.7819 25.5906 16.7298C21.6537 16.643 18.4541 17.4995 17.6304 17.9711C17.1984 18.2171 17.1639 18.5701 17.4864 18.8681L17.305 19.0707L17.3079 19.0735Z" fill="black"></path>
  <path d="M17.8207 19.0446C17.8207 19.0446 17.8121 19.0301 17.8063 19.0041C17.6623 18.489 18.4313 18.2228 18.7654 18.1389C21.0319 17.5805 22.9153 17.1986 25.2913 17.1696C27.1863 17.1465 30.3254 17.7252 32.1455 18.5267C32.3068 18.599 33.0066 18.8826 32.8165 19.1979L32.5833 19.0562C32.5833 19.0562 32.5833 19.0909 32.5775 19.1025C32.4018 18.7929 30.4579 18.2344 30.2246 18.1708C28.7328 17.7657 26.8263 17.4242 25.2942 17.4445C22.9413 17.4734 21.0779 17.8525 18.8316 18.4051C18.7654 18.4225 17.982 18.6279 18.0684 18.9288L17.8207 19.0446Z" fill="black"></path>
  <path d="M15.4043 23.3731C17.0228 23.5409 18.4829 22.2851 18.1057 20.6416C16.6484 20.523 16.6743 18.5583 17.9905 18.7348C18.4887 18.7985 19.0388 19.1718 19.1943 19.7591C19.9805 22.6989 18.4916 24.5305 15.4244 24.435L15.4331 24.163C18.3245 24.2527 19.6666 22.5832 18.9293 19.8286C18.6961 18.949 17.2186 18.5873 17.2849 19.626C17.3223 20.2047 17.8436 20.3668 18.3159 20.3725C18.8516 22.3517 17.2474 23.836 15.3755 23.6422L15.4043 23.3702V23.3731Z" fill="black"></path>
  <path d="M35.4258 23.6135C35.4258 23.6135 34.9823 23.6829 34.4322 23.6192C33.2227 23.4833 32.2925 22.6933 32.1974 21.4376C32.1744 21.1598 32.2032 20.9486 32.2925 20.6853C32.6467 20.7779 33.6057 20.963 33.5971 20.1847C33.5798 18.7293 32.0909 19.1575 31.6157 19.9822C31.2701 20.5811 31.0598 22.022 32.0937 23.1621C33.1219 24.2963 35.4575 24.1574 35.4748 24.1574L35.4921 24.4294C35.4921 24.4294 34.8786 24.4699 34.1241 24.3571C33.3782 24.2442 32.4653 23.9809 31.8921 23.3473C30.7661 22.1031 30.9907 20.529 31.3795 19.8462C32.0016 18.7669 33.8505 18.4399 33.8707 20.1818C33.8793 21.0238 33.0873 21.1164 32.4854 21.0093V21.0238C32.3961 21.6112 32.6294 22.2014 32.998 22.6557C33.5193 23.301 34.6166 23.4543 35.3884 23.3415L35.4287 23.6106L35.4258 23.6135Z" fill="black"></path>
  <path d="M6.03024 42.198C8.26506 43.124 10.4481 45.2767 11.0471 47.6551C11.5626 49.6979 11.1104 52.5972 9.5236 54.1596C8.99945 54.6747 7.40108 56.107 6.59758 55.6874L6.72142 55.4443C7.34925 55.7713 8.91593 54.3767 9.33352 53.9658C10.834 52.4901 11.2832 49.7008 10.785 47.7246C10.1745 45.3056 7.94539 43.2571 5.73072 42.3717L5.75664 42.2357C5.78256 41.139 5.27858 39.7212 5.02802 38.6362C4.38004 35.8208 4.51827 30.248 6.06768 27.6931C7.69772 25.0022 10.2983 25.6474 11.9744 27.7249C12.5562 27.1578 13.3481 27.0478 13.76 26.2666C14.0451 25.7255 14.2438 25.0427 14.7968 24.707C14.8889 24.6492 15.0012 24.6086 15.2863 24.4293C16.182 23.8621 13.7657 20.008 10.6468 20.7401C7.57964 21.4577 5.36785 24.1052 4.60467 27.1028C3.85301 30.0628 4.27348 39.6084 5.15186 42.7044C7.83596 43.7316 10.2493 46.2807 10.2868 49.3044C10.3041 50.6904 10.042 54.0931 8.02603 54.4895L8.07499 54.2841C8.29387 53.3697 6.25487 54.041 6.34127 54.7326C6.43055 55.453 10.6208 60.2591 11.4157 61.211C12.3949 61.1705 13.8838 60.369 14.2697 59.5126L14.4656 59.0756C14.6412 60.4182 14.9436 61.4801 15.5023 62.7185C17.3714 66.8504 20.8072 69.0263 25.3517 69.0002C29.9078 68.9742 33.1419 66.6942 34.6568 62.4147C35.0225 61.3817 35.3134 60.2215 35.3623 59.1335L35.6244 59.0901C35.993 60.0623 36.8887 61.104 37.937 61.0924C38.3258 61.0866 39.4144 60.9738 39.2416 60.3632L43.1324 55.2042C43.6479 54.5184 42.2166 54.096 41.8019 54.313C38.8759 51.2401 39.8723 43.801 45.4392 43.6824C46.4357 39.5939 47.6193 32.502 46.7554 28.5958C46.0411 25.3552 44.2815 22.5688 41.1395 21.3506C39.7802 20.824 36.2868 20.9224 35.7569 22.4646C35.3451 23.6538 35.3364 24.8806 36.2407 25.7631C36.857 26.3679 37.4273 27.9159 38.0983 28.2052C38.8355 28.5235 41.0732 27.6005 41.9199 27.4298C43.262 27.1607 44.149 26.6428 45.1599 28.0982C46.5509 30.1004 46.571 35.0396 46.0728 37.282C45.6466 39.1975 45.2146 41.0927 44.869 43.0227C41.439 43.5956 39.328 46.4167 39.1581 49.7789C39.0573 51.7523 39.4893 53.0949 40.7305 54.6342C40.8803 54.8194 41.4966 55.5485 41.6233 55.6411C42.0207 55.9391 42.4153 55.861 42.7695 55.5022L42.9625 55.6932C42.5363 56.1243 41.9948 56.2574 41.4592 55.861C41.2979 55.7395 40.6557 54.9756 40.5174 54.8049C39.233 53.2135 38.7808 51.8044 38.8845 49.7645C39.0544 46.3733 41.2 43.4046 44.6328 42.7854C44.9727 40.922 45.396 39.0731 45.805 37.2213C46.3003 34.9962 46.26 30.1583 44.9352 28.2544C44.0194 26.9379 43.2015 27.4529 41.9718 27.6989C41.0185 27.8898 38.8615 28.8302 37.9917 28.457C37.1738 28.104 36.7188 26.6138 36.0506 25.9599C35.0369 24.9645 35.0744 23.6075 35.5006 22.372C36.1255 20.5607 39.9011 20.5752 41.2374 21.0931C44.4888 22.3546 46.2946 25.2365 47.0203 28.5322C47.9275 32.6525 46.6114 40.0308 45.6495 43.9486C40.4944 43.9602 38.9767 50.8379 41.8624 53.9774C42.6082 53.7198 43.9388 54.5792 43.3426 55.3662L39.5325 60.4182C39.6621 61.1647 38.4179 61.3528 37.9341 61.3586C36.9031 61.3731 36.0564 60.5311 35.587 59.6659C35.4833 60.6294 35.2183 61.6161 34.9044 62.4986C33.3493 66.888 30.0143 69.2375 25.3459 69.2664C20.6949 69.2954 17.1612 67.0587 15.246 62.8256C14.8457 61.9402 14.4857 60.9419 14.3072 59.9582C13.6909 60.7973 12.3085 61.4743 11.2832 61.483C10.425 60.4414 6.17135 55.6237 6.0648 54.7644C5.892 53.3524 8.13835 53.4045 8.3313 54.1365C9.73383 53.6475 10.0247 50.537 10.0074 49.3044C9.96998 46.2923 7.51052 43.8763 4.92146 42.9127C4.02868 39.8775 3.5391 30.167 4.33396 27.0334C5.1173 23.9576 7.39245 21.2175 10.5777 20.471C13.9184 19.6897 16.6802 23.8621 15.4217 24.6578C14.9379 24.9645 14.9638 24.843 14.5779 25.2915C14.0192 25.9396 14.1833 26.5444 13.3309 27.1404C12.801 27.5137 12.4064 27.6265 11.9514 28.1445C10.4423 26.1856 7.96843 25.0716 6.29231 27.8349C4.79475 30.3001 4.64211 35.7919 5.28434 38.5754C5.55505 39.7415 6.03312 40.9886 6.0216 42.198H6.03024Z" fill="black"></path>
  <path d="M35.4401 59.2553L35.2961 58.8704C34.7921 60.3982 33.5652 63.8414 32.6868 64.5098C31.82 65.1695 31.1403 65.508 30.9791 64.1655L26.5267 63.6852C25.6771 63.5926 25.4093 65.5225 27.0681 65.5572C27.094 65.5572 29.686 65.8495 29.709 65.8495V66.1215C29.6917 66.1215 27.1055 65.8292 27.0825 65.8292C25.032 65.809 25.3171 63.2801 26.5555 63.4132L31.2267 63.9137C31.3419 65.1348 31.6242 64.967 32.5198 64.2841C33.4846 63.5521 34.9562 59.0382 35.273 58.0371L35.6906 59.1511L35.4372 59.2466L35.4401 59.2553Z" fill="black"></path>
  <path d="M14.4827 59.4578C14.4683 59.5764 14.4567 59.6574 14.4567 59.6574L14.186 59.6198C14.186 59.6198 14.2782 58.9485 14.2753 58.7171C14.2667 58.0487 14.5172 58.5435 14.5806 58.7894C15.0788 60.6904 16.0205 63.1094 17.809 64.0845C18.0336 64.2089 18.7738 64.5677 19.0992 64.4432C19.1798 64.261 19.2 64.0613 19.3152 63.8906C19.4621 63.6765 19.7184 63.5463 20.2137 63.5231C21.1699 63.4797 23.3327 63.555 23.3327 63.555C23.3327 63.555 23.4018 63.5723 23.4825 63.6012C23.8396 63.7315 24.2341 63.9919 24.2399 64.4317C24.2485 65.1001 23.4105 65.7019 20.8387 66.1099L20.7955 65.8408C23.3817 65.4328 23.972 64.8599 23.9692 64.4346C23.9634 64.1076 23.566 63.9051 23.2924 63.8269C23.0994 63.8183 21.1267 63.7546 20.2253 63.798C18.9322 63.8588 19.848 64.8223 18.8227 64.7297C18.5606 64.7066 18.1863 64.5995 17.6765 64.3246C15.9889 63.4016 15.0039 61.2373 14.4798 59.4549L14.4827 59.4578Z" fill="black"></path>
  <path d="M19.3267 64.4286C19.5082 64.4402 19.7933 64.3013 19.9315 64.2231L20.064 64.4633C19.92 64.5443 19.4534 64.7671 19.2461 64.689L19.3296 64.4286H19.3267Z" fill="black"></path>
  <path d="M20.0957 63.665C21.7545 63.7779 21.3225 65.8728 19.3987 65.8959C18.2497 65.9104 16.4843 64.7183 15.7988 63.8734L16.0091 63.7027C16.6686 64.5186 18.3648 65.6384 19.393 65.6239C20.9337 65.6037 21.4032 64.0296 20.0755 63.9428L20.0928 63.6679L20.0957 63.665Z" fill="black"></path>
  <path d="M30.599 63.9974C29.0525 64.6137 30.1008 66.4742 31.9411 65.9042C33.0384 65.5656 34.3574 63.8874 34.7519 62.8718L34.5014 62.7734C34.1183 63.7514 32.8483 65.337 31.8633 65.6438C30.3888 66.098 29.4644 64.7439 30.6998 64.252L30.6019 63.9974H30.599Z" fill="black"></path>
  <path d="M24.2229 64.5127C24.557 64.9322 25.2251 64.9004 25.6283 64.5358L25.8127 64.7384C25.3288 65.1753 24.4706 65.2621 24.0127 64.6863L24.2258 64.5156L24.2229 64.5127Z" fill="black"></path>
  <path d="M6.83386 55.0017C6.83386 55.0017 6.81082 54.9554 6.79354 54.8802C6.68123 54.4028 7.0441 54.206 7.49912 54.2205L7.49048 54.4953C7.22841 54.4896 6.99226 54.5359 7.0585 54.8194C7.07001 54.8599 7.08154 54.8889 7.08154 54.8889L6.83386 55.0017Z" fill="black"></path>
  <path d="M42.6974 54.5039C42.6974 54.5039 42.7291 54.556 42.7637 54.6341C42.7953 54.7064 42.8299 54.8135 42.8328 54.9264C42.8357 55.2128 42.6197 55.4009 42.1416 55.3691L42.1589 55.0971C42.5621 55.1231 42.5621 54.9842 42.5621 54.9292C42.5621 54.8424 42.516 54.7267 42.467 54.6515L42.6974 54.5039Z" fill="black"></path>
  <path fill-rule="evenodd" clip-rule="evenodd" d="M44.5321 27.4502C43.6451 26.8686 42.7379 26.3131 41.8567 25.7228C40.7508 24.9763 42.1533 24.5452 42.7235 25.61C42.7437 25.6447 42.7754 25.6244 42.7984 25.6071C42.9395 25.4942 43.0374 25.257 43.0864 25.0891C43.2102 24.6522 43.0893 24.2703 42.689 24.0388C41.9373 23.6077 40.8919 24.0764 40.6586 24.9011C40.4916 25.4942 40.4484 24.8085 39.7774 25.2193C39.521 25.3785 39.2647 25.8935 39.0401 25.8762C38.6513 25.8472 38.2798 25.5955 37.8968 25.6013C37.4849 25.6071 38.6599 25.0342 38.7406 25.011C38.7809 24.9965 39.3713 24.8258 39.1092 24.7506C38.9652 24.7101 38.5246 24.4526 38.899 24.3773C39.1121 24.3368 40.2036 24.2587 40.29 24.088C40.3677 23.9317 39.714 23.8276 39.9789 23.6308C40.6385 23.1447 40.6701 23.9925 40.866 23.8247C42.3578 22.5458 44.5638 25.2975 45.3443 26.2494C44.391 24.8548 43.2765 23.5874 41.5802 23.2142C39.2359 22.6991 37.5742 23.8507 37.2228 26.1742C36.6123 25.0689 37.6433 24.5278 37.4532 24.2413C37.338 24.0677 37.1739 24.2066 37.3812 23.952C38.5188 22.5747 40.4743 22.621 42.0784 22.9219C41.2634 22.6008 40.0999 22.5805 39.2532 22.6991C38.9623 22.7396 37.7758 23.1216 38.2654 22.6615C38.4641 22.4734 38.6513 22.5371 38.8587 22.4329C38.9422 22.3895 38.6023 22.3114 38.5908 22.3085C38.4497 22.2825 38.3143 22.2796 38.179 22.3201C37.9198 22.3982 37.2113 22.8901 36.9953 22.8467C36.6584 22.7801 36.8312 22.54 37.0414 22.4358C37.1825 22.3664 37.338 22.3143 37.4792 22.2449C37.5137 22.2275 37.6001 22.1725 37.5656 22.1725C37.4763 22.1725 36.8888 22.1378 37.1192 21.9381C37.2545 21.8224 37.6692 21.8542 37.5742 21.6922C37.3006 21.2206 36.8053 21.0383 36.3992 21.5533C36.1947 21.8137 35.8693 21.8311 35.7598 22.1754C35.4229 23.272 35.0744 24.007 35.6763 25.147C35.9355 25.6331 36.4078 25.9687 36.7131 26.4664C37.1912 27.2448 37.5051 28.3819 38.5735 28.4079C39.6276 28.434 43.8841 26.6082 44.5292 27.4473L44.5321 27.4502Z" fill="black"></path>
  <path d="M10.7648 26.6514C11.2659 25.9541 10.1773 25.4419 9.9267 25.6098C10.6352 24.9674 9.63583 24.4639 8.71713 25.413C8.38018 24.6607 7.76387 25.1121 7.32324 25.5374C7.4586 24.7735 8.02595 24.0357 8.76321 23.7869L8.93025 23.7348C9.02529 23.7059 10.3961 23.4165 10.3587 23.7956C10.3443 23.9315 10.1513 23.9258 10.1369 24.0675C10.1254 24.1601 11.2227 24.8517 11.3926 24.9558C11.4444 24.8459 11.551 24.652 11.695 24.7012C11.8044 24.7388 12.6655 25.5316 12.726 25.6503C12.8066 25.8065 12.7231 26.0438 12.919 26.0988C13.2386 26.1856 13.3308 24.9906 13.2329 24.7504C13.1263 24.4871 13.0745 24.1601 12.7606 24.1023C12.1212 23.9865 12.0435 22.9912 11.6057 22.997C11.2803 22.9998 10.9347 22.9449 10.6524 22.7799C10.2291 22.534 9.55231 22.9362 9.152 22.8523C8.97056 22.8147 9.31904 22.5977 9.35935 22.5716C9.75967 22.3112 10.3069 22.2041 10.7763 22.207C11.8131 22.2128 13.1321 23.3876 13.3653 23.321C14.1688 23.0924 12.5647 21.4547 12.173 21.5358C12.0262 21.5647 11.8822 21.6197 11.7382 21.6602C11.3955 21.53 10.3645 21.1741 10.0505 21.3245C9.67039 21.5039 10.1225 21.611 9.9987 21.747C9.84318 21.9206 8.2477 21.7614 7.81283 21.9785C8.84385 21.1625 10.4998 20.4825 11.8044 20.4883C13.2386 20.4941 15.6318 22.5803 15.6002 23.8795C15.58 24.7591 14.7995 24.5565 14.4885 25.2278C14.4165 25.3841 13.6562 26.7151 13.5756 26.7729C13.1349 27.0941 12.2105 27.4616 12.0089 27.8985L10.7619 26.6572L10.7648 26.6514Z" fill="black"></path>
  <path d="M12.8873 25.5057C13.0169 25.5144 12.9766 25.3755 12.9766 25.2916C12.968 24.5277 11.8419 23.6394 11.2544 23.3385C8.49256 21.9236 6.07341 24.7563 5.33039 27.1174C5.28719 27.2534 5.20943 27.5398 5.46575 27.4357C5.52047 27.4154 5.93518 26.4172 5.98126 26.3159C6.23469 25.7546 6.50828 25.1643 6.92011 24.6984C7.5105 24.0272 8.74311 23.3327 9.65029 23.3038C11.9312 23.2286 12.7088 25.4913 12.8873 25.5028V25.5057Z" fill="black"></path>
  <path d="M17.8064 20.1034C17.5559 19.736 17.9389 19.137 18.3911 19.2441L18.3277 19.5103C18.1319 19.464 17.9159 19.7765 18.0339 19.9501L17.8093 20.1034H17.8064Z" fill="black"></path>
  <path d="M32.0708 19.6868C32.569 19.6 32.7274 19.7388 32.978 20.089C33.0356 20.17 33.0701 20.1931 33.1825 20.1584L33.2573 20.4217C32.9319 20.5172 32.8311 20.3523 32.6785 20.1353C32.5978 20.0166 32.4942 19.8922 32.1169 19.9588L32.0708 19.6897V19.6868Z" fill="black"></path>
  <path d="M20.4444 27.2215C20.9801 27.2331 21.51 27.3026 21.9909 27.6208C24.8334 27.534 27.6759 27.3807 30.5184 27.2939C32.6985 27.2273 34.9852 29.0763 36.2667 30.5838C38.7464 33.5033 39.02 41.8538 38.9336 45.1697C36.9752 45.3086 35.42 50.5747 34.9564 52.1719C34.1932 54.7847 32.9692 57.8258 30.6048 59.4664C29.3434 60.3431 27.6529 60.6411 26.2043 60.0017C26.0286 61.3384 24.2632 61.512 24.0213 60.3518C18.2211 62.166 15.2404 54.1511 14.4685 49.9613C14.1748 48.3757 13.3396 45.8873 11.5166 45.2884C11.2488 44.1165 11.4676 41.6513 11.5656 40.381C11.8161 37.1577 12.3633 33.0027 14.3188 30.2799C15.6032 28.4889 18.2096 27.1724 20.4415 27.2215H20.4444ZM20.4386 27.4935C18.296 27.4443 15.776 28.7175 14.5434 30.4362C12.6398 33.0895 12.0897 37.1693 11.842 40.3984C11.7499 41.6021 11.5396 43.9545 11.7528 45.0743C13.5729 45.734 14.4455 48.3092 14.7392 49.9063C15.3498 53.2136 18.0627 62.0878 24.2603 59.9814C24.3611 61.3963 25.9422 60.9391 25.9508 59.7904V59.5705C27.457 60.3286 29.0698 60.1955 30.4522 59.2378C32.7302 57.6551 33.934 54.7008 34.6943 52.0909C35.1724 50.4474 36.7534 45.2594 38.6715 44.918C38.755 41.1768 38.3432 33.4425 36.0623 30.7574C34.7865 29.2614 32.5718 27.4993 30.5299 27.563C27.6586 27.6498 24.7844 27.8089 21.9132 27.8928C21.4466 27.5746 20.9887 27.5051 20.4386 27.4935Z" fill="black"></path>
  <path d="M26.4693 58.7287C29.6545 60.1841 33.3495 55.3404 33.7959 52.4064C34.1443 50.1177 35.5123 46.171 37.534 44.7677C37.7154 44.6404 37.9084 44.5217 38.11 44.3828C38.349 44.2237 37.7154 37.7742 37.4966 36.6573C37.0156 34.1978 36.0825 31.1539 34.0176 29.5799C32.618 28.5093 30.4724 28.0782 28.9 28.9867C30.2247 30.6302 26.3311 30.1557 27.7336 28.5527C28.6177 27.5458 30.4724 27.2998 31.6676 27.4995L31.6244 27.7685C30.4638 27.5747 28.7329 27.8293 27.941 28.7321C26.8696 29.9531 29.7956 30.0949 28.4593 28.9404C30.2535 27.7801 32.5517 28.1158 34.1818 29.36C36.31 30.9832 37.2662 34.0705 37.7644 36.6023C37.9631 37.6208 38.7205 44.2989 38.2626 44.6085C37.8854 44.8632 37.4937 45.0889 37.1711 45.4187C35.5785 47.0275 34.4093 50.1872 34.0666 52.447C33.6807 54.999 29.9396 60.9943 25.948 58.7605C26.2015 58.5001 26.164 58.61 26.3455 58.4827C27.5032 57.6783 24.8335 55.9046 25.3145 58.9746L25.0437 59.0007C24.9199 55.4417 22.7139 57.7651 24.0934 58.6795C24.1135 59.2148 23.3763 59.2495 23.0019 59.2726C20.3466 59.452 19.1456 58.2802 17.7892 56.1795C16.8791 54.7733 16.2455 53.7664 15.756 52.1055C14.9525 49.3654 14.7883 46.5153 12.11 44.7677C11.629 40.277 12.0812 29.2905 19.3789 28.1968C19.952 28.11 21.009 28.0116 21.4957 28.6424L21.7232 28.9375C21.4467 28.8796 21.3229 28.7494 21.2163 29.0185C21.1673 29.1487 21.1472 29.3021 21.1443 29.3484C21.0954 30.2569 23.3676 29.3629 21.919 27.9132L22.112 27.7194C24.0761 29.6898 20.8045 30.6128 20.8736 29.3339C20.8851 29.1256 20.9629 28.8044 21.1328 28.6626C20.7094 28.3357 19.9607 28.3849 19.4192 28.4659C12.8443 29.4497 11.8018 39.1486 12.3692 44.6085C15.9 46.9638 15.0849 51.3937 17.1153 54.5852C18.2413 56.3589 19.4768 58.8328 21.8643 58.9978C22.184 59.018 23.5433 59.0643 23.8025 58.8097C22.2416 57.6697 24.295 55.922 25.0581 57.6407C25.2021 57.9619 25.2972 58.4046 25.3173 58.992L25.0466 59.018C24.9516 58.4104 24.9689 57.9619 25.0581 57.6407C25.542 55.8844 27.9611 57.8751 26.4722 58.7287H26.4693Z" fill="black"></path>
  <path d="M21.4956 29.0616C21.5676 29.1079 21.7807 29.215 21.8326 28.9517L22.1004 29.0037C22.0198 29.4291 21.6482 29.4841 21.3545 29.2931L21.4985 29.0616H21.4956Z" fill="black"></path>
  <path d="M28.2116 29.0298C28.2116 29.0298 28.2116 29.05 28.2203 29.0819C28.2692 29.3076 28.4507 29.3654 28.6753 29.3365L28.707 29.6085C28.3383 29.6519 28.0331 29.5043 27.9553 29.1397C27.9409 29.0761 27.9409 29.0327 27.9409 29.0327H28.2116V29.0298Z" fill="black"></path>
  <path d="M22.4028 28.1621C22.7801 28.1534 24.1567 28.0955 25.4929 28.0521C26.812 28.0087 28.131 27.9769 28.3556 28.029L28.2922 28.2952C28.1137 28.2518 26.8523 28.2807 25.4987 28.3241C24.1624 28.3675 22.7829 28.4254 22.4057 28.4341L22.3999 28.1621H22.4028Z" fill="black"></path>
  <path d="M22.5698 28.7032C23.9378 28.6887 26.5124 28.2923 27.7249 28.6135L27.6558 28.8768C26.5067 28.573 23.8917 28.9607 22.5756 28.9752V28.7003L22.5698 28.7032Z" fill="black"></path>
  <path d="M22.6069 29.0589C24.26 29.0386 25.9131 28.9808 27.5662 28.9663V29.2383C25.916 29.2528 24.2629 29.3106 22.6098 29.3309V29.0589H22.6069Z" fill="black"></path>
  <path d="M25.2221 59.2206C25.032 59.6691 24.6836 60.2565 24.1565 60.3346L24.1162 60.0626C24.7498 59.97 25.0551 58.8995 25.2077 58.396C25.2077 58.396 25.3517 58.8618 25.3776 58.9197C25.5216 59.2525 25.7894 59.5331 26.135 59.6604L26.04 59.918C25.6915 59.7906 25.4093 59.536 25.225 59.2177L25.2221 59.2206Z" fill="black"></path>
  <path d="M24.8561 60.1144C24.8561 60.1144 24.8619 60.1144 24.8705 60.1231C24.9857 60.1752 25.1096 60.1231 25.2017 60.0479L25.3717 60.262C25.1931 60.4038 24.9713 60.4674 24.7611 60.3719C24.7208 60.3546 24.6978 60.3372 24.6978 60.3372L24.8561 60.1144Z" fill="black"></path>
  <path d="M22.3592 29.2067C22.3823 29.1575 22.4053 29.1083 22.4284 29.0591C23.2376 29.0765 24.0354 29.0418 24.8417 29.0302C25.0923 29.0273 27.5431 28.819 27.6929 29.2501C28.0269 30.2078 29.2912 29.6697 28.5914 29.0649L28.4532 28.9463C30.2445 27.7889 32.5513 28.1159 34.1756 29.3659C36.3039 31.0036 37.26 34.0677 37.7582 36.6082C37.9541 37.618 38.7173 44.2933 38.2593 44.6144C36.7272 45.685 35.9957 46.7469 35.2412 48.4859C34.6911 49.7532 34.2649 51.09 34.0604 52.4528C33.7206 54.73 32.0387 57.1692 30.1351 58.4134C28.8794 59.2351 27.3214 59.5389 25.9419 58.7664C26.1953 58.506 26.1579 58.6159 26.3393 58.4886C27.497 57.6842 24.8273 55.9019 25.3083 58.9805L25.0376 59.0065C24.9137 55.4447 22.7106 57.7681 24.0901 58.6854C24.1074 59.2207 23.373 59.2554 22.9986 59.2785C20.3433 59.4579 19.1424 58.2861 17.7859 56.1883C16.8759 54.7821 16.2394 53.778 15.7498 52.1114C14.9434 49.3742 14.7821 46.5212 12.1038 44.7707C11.6171 40.2019 12.0664 29.3572 19.3728 28.1998C19.9459 28.1101 21.0057 28.0204 21.4895 28.6454L21.7199 28.9405C21.4434 28.8826 21.3167 28.7524 21.2159 29.0215C20.7782 30.1702 22.2066 29.5452 22.3592 29.2067ZM27.4452 29.3601C27.114 29.1865 25.2277 29.2964 24.8446 29.3022C24.067 29.3109 23.2837 29.3514 22.509 29.3311L22.6357 29.2559C22.4456 29.6349 22.0165 29.8635 21.6105 29.933C20.6342 30.1008 20.7983 28.9492 21.1295 28.6627C20.7062 28.3387 19.9574 28.3792 19.416 28.466C12.818 29.5105 11.7899 39.1053 12.363 44.6086C15.8938 46.9668 15.0759 51.3967 17.1091 54.5853C18.2409 56.3619 19.4649 58.83 21.8581 58.9979C22.1778 59.0181 23.5371 59.0644 23.7935 58.8098C22.2383 57.664 24.2888 55.9221 25.0491 57.6437C25.5272 55.8961 27.955 57.8549 26.466 58.7288C27.5863 59.2062 28.9831 58.8358 29.9853 58.1819C31.8285 56.9753 33.4614 54.6027 33.7897 52.4094C33.9999 51.0177 34.4319 49.6577 34.9906 48.3759C35.7596 46.6022 36.5199 45.494 38.1038 44.3887C38.3486 44.2151 37.6978 37.7309 37.4904 36.6603C37.0066 34.1922 36.0764 31.1714 34.0114 29.58C32.6176 28.5065 30.4605 28.0812 28.8938 28.9868C29.6195 29.878 27.9146 30.6448 27.4423 29.3601H27.4452Z" fill="black"></path>
  <path d="M22.96 44.5021L22.7598 44.6895L24.8657 46.9616L25.0659 46.7742L22.96 44.5021Z" fill="black"></path>
  <path d="M24.9802 43.8965L25.1991 46.7668L24.9283 46.79L24.7095 43.9196L24.9802 43.8965Z" fill="black"></path>
  <path d="M24.2401 44.7513L23.999 44.8813L24.8845 46.5384L25.1255 46.4084L24.2401 44.7513Z" fill="black"></path>
  <path d="M25.3575 45.1865L25.125 46.6729L25.3924 46.7151L25.6249 45.2287L25.3575 45.1865Z" fill="black"></path>
  <path d="M26.3883 44.293L25.5819 46.9521L25.3228 46.871L26.1291 44.2148L26.3883 44.293Z" fill="black"></path>
  <path d="M26.7003 45.2395L25.6343 46.9756L25.8671 47.1199L26.9331 45.3838L26.7003 45.2395Z" fill="black"></path>
  <path d="M28.0246 44.9867L26.084 46.9854L26.2778 47.1753L28.2184 45.1766L28.0246 44.9867Z" fill="black"></path>
  <path d="M28.1287 46.6285L26.1694 47.2837L26.2549 47.5418L28.2142 46.8866L28.1287 46.6285Z" fill="black"></path>
  <path d="M23.2741 45.524L23.083 45.7207L24.3527 46.9655L24.5438 46.7688L23.2741 45.524Z" fill="black"></path>
  <path d="M22.4745 45.5981L24.2917 47.1577L24.116 47.3661L22.2959 45.8036L22.4745 45.5981Z" fill="black"></path>
  <path d="M22.5725 46.3823L24.1852 47.259L24.0556 47.4992L22.4429 46.6225L22.5725 46.3823Z" fill="black"></path>
  <path d="M20.9685 46.6948L23.9925 47.4732L23.9233 47.7394L20.8994 46.961L20.9685 46.6948Z" fill="black"></path>
  <path d="M23.7783 47.7613L22.2866 47.7788L22.2898 48.0508L23.7815 48.0332L23.7783 47.7613Z" fill="black"></path>
  <path d="M21.4438 48.5668L23.7248 48.0488L23.7852 48.315L21.5043 48.833L21.4438 48.5668Z" fill="black"></path>
  <path d="M22.2876 49.0845L23.8831 48.3496L23.9954 48.5984L22.4028 49.3334L22.2876 49.0845Z" fill="black"></path>
  <path d="M24.0648 48.7805L21.8237 50.2222L21.9697 50.4512L24.2108 49.0096L24.0648 48.7805Z" fill="black"></path>
  <path d="M23.1831 50.5952L24.2516 48.9951L24.4762 49.1485L23.4077 50.7457L23.1831 50.5952Z" fill="black"></path>
  <path d="M24.481 49.316L23.3945 51.728L23.6438 51.8414L24.7303 49.4294L24.481 49.316Z" fill="black"></path>
  <path d="M24.439 50.899L24.8105 49.4233L25.0725 49.4899L24.701 50.9656L24.439 50.899Z" fill="black"></path>
  <path d="M24.9826 49.4437L24.9336 52.2065L25.2071 52.2114L25.2561 49.4486L24.9826 49.4437Z" fill="black"></path>
  <path d="M25.5576 49.3604L25.2969 49.4336L25.7203 50.9551L25.981 50.8819L25.5576 49.3604Z" fill="black"></path>
  <path d="M26.7169 51.9376L25.6514 49.3595L25.9048 49.2554L26.9646 51.8334L26.7169 51.9376Z" fill="black"></path>
  <path d="M26.1571 49.1393L25.9492 49.3135L27.2958 50.9356L27.5037 50.7613L26.1571 49.1393Z" fill="black"></path>
  <path d="M28.4274 50.9046L26.2876 49.1541L26.4604 48.9429L28.6002 50.6934L28.4274 50.9046Z" fill="black"></path>
  <path d="M28.0849 49.9702L26.4116 48.9517L26.5527 48.7173L28.2231 49.7329L28.0849 49.9702Z" fill="black"></path>
  <path d="M29.0294 49.5361L26.5498 48.7404L26.6304 48.48L29.1129 49.2757L29.0294 49.5361Z" fill="black"></path>
  <path d="M26.6994 48.0937L26.6714 48.3643L28.9601 48.6031L28.9881 48.3326L26.6994 48.0937Z" fill="black"></path>
  <path d="M29.3734 47.2368L26.4482 47.6357L26.4847 47.9053L29.4098 47.5063L29.3734 47.2368Z" fill="black"></path>
  <path d="M25.1443 46.57C24.4013 46.5787 23.6813 47.0735 23.6928 48.0457C23.7043 49.015 24.433 49.4924 25.1789 49.4837C25.9219 49.4751 26.6419 48.9803 26.6275 48.011C26.6159 47.0416 25.8873 46.5642 25.1414 46.5729L25.1443 46.57ZM25.1414 46.298C26.0025 46.2865 26.8895 46.8536 26.9039 48.0052C26.9155 49.1568 26.0428 49.7441 25.1846 49.7557C24.3235 49.7673 23.4394 49.2031 23.425 48.0486C23.4106 46.8941 24.2832 46.3096 25.1443 46.298H25.1414ZM25.2307 49.4779C24.5683 49.4866 23.8829 49.0497 23.8714 48.1614C23.8599 47.2702 24.5366 46.8188 25.199 46.8131C25.8585 46.8044 26.5439 47.2384 26.5583 48.1296C26.5699 49.0179 25.8931 49.4722 25.2336 49.4808L25.2307 49.4779ZM25.2278 49.206C25.7721 49.2002 26.2934 48.8385 26.2848 48.1325C26.2761 47.4265 25.7462 47.0793 25.2019 47.085C24.6576 47.0908 24.1363 47.4525 24.145 48.1585C24.1536 48.8674 24.6835 49.2146 25.2278 49.206Z" fill="black"></path>
  <path d="M23.8198 47.5915C24.2143 47.2617 24.8911 46.9463 25.277 47.4816C25.7205 46.9202 26.4866 47.3977 26.4866 48.0574H26.213C26.213 47.4497 25.6082 47.3514 25.3922 47.8143L25.2597 48.1008C25.1445 47.8114 25.0582 47.4266 24.6578 47.47C24.4418 47.4931 24.1942 47.632 23.9926 47.7999L23.8169 47.5915H23.8198Z" fill="black"></path>
  <path d="M23.8597 47.8289C23.9489 47.6582 24.0757 47.7595 24.1534 47.881C24.2369 48.0141 24.2801 48.5928 24.3953 48.5928C24.5422 48.5928 24.4616 48.4192 24.6776 48.4655C24.9137 48.5176 24.9972 48.8619 25.2852 48.7809C25.5732 48.6999 25.8555 48.263 26.0427 48.3237C26.1751 48.3671 26.2039 47.9071 26.2212 47.8318C26.2644 47.6148 26.5265 47.6958 26.5265 47.855C26.561 50.76 23.2059 49.0789 23.8625 47.8318L23.8597 47.8289Z" fill="black"></path>
  <path d="M24.8853 48.2656C24.8853 48.2656 25.5246 48.1036 25.4699 48.2135C25.4152 48.3293 25.5016 48.5087 25.2798 48.5116C25.058 48.5116 24.8997 48.3611 24.8997 48.3611L24.8853 48.2627V48.2656Z" fill="black"></path>
  <path d="M25.5588 47.7102C25.7086 47.6755 25.9937 47.6524 25.9563 47.8867C25.9102 48.1703 25.4206 48.3642 25.5156 47.9157L25.5588 47.7073V47.7102Z" fill="black"></path>
  <path fill-rule="evenodd" clip-rule="evenodd" d="M22.5148 29.1948C23.2924 29.2063 24.07 29.1745 24.8476 29.1629C25.1298 29.16 27.4481 29.0154 27.5691 29.2931C27.6353 29.4494 27.6325 29.5622 27.7333 29.6953C27.9637 29.9847 28.7153 29.9268 28.8852 29.6317C29.0235 29.3886 28.8651 29.1166 28.6836 28.9575C30.331 27.8927 32.6205 28.3499 34.0979 29.4696C35.3852 30.4447 36.1887 31.9291 36.7446 33.4163C37.1362 34.458 37.4127 35.5372 37.6258 36.6281C37.813 37.5858 38.5416 44.2553 38.1845 44.4954C36.6322 45.5486 35.8691 46.7002 35.1174 48.4248C30.8407 47.629 26.6101 45.0423 24.7381 40.9914C23.2031 45.2448 19.0589 47.4091 14.9089 48.3408C14.4683 46.9722 13.4488 45.4763 12.2363 44.6864C11.6632 39.3161 12.6712 29.2642 19.3959 28.3296C19.9862 28.2486 20.9539 28.1618 21.3859 28.726C21.0979 28.6653 21.0086 29.2266 21.0086 29.3423C21 30.2277 22.1404 29.6924 22.4486 29.325C22.4774 29.2931 22.4947 29.2324 22.5148 29.1948ZM24.8303 31.8162C24.6143 32.1172 24.3148 32.4557 24.1593 32.7884C24.0527 32.6698 23.4278 32.2966 23.2463 32.1837L23.687 33.6044L22.5465 34.2265L23.5199 34.7618L23.0822 36.1478L24.1765 35.4967L24.8245 36.4603L25.4351 35.572L26.7397 36.0262L26.1176 34.5911L27.2437 34.0471L26.3336 33.6189L26.5726 32.2647L25.4034 32.9013L24.8303 31.8162Z" fill="black"></path>
  <path d="M22.5148 29.1948C23.2924 29.2063 24.07 29.1745 24.8476 29.1629C25.1298 29.16 27.4481 29.0154 27.5691 29.2931C27.6353 29.4494 27.6325 29.5622 27.7333 29.6953C27.9637 29.9847 28.7153 29.9268 28.8852 29.6317C29.0235 29.3886 28.8651 29.1166 28.6836 28.9575C30.331 27.8927 32.6205 28.3499 34.0979 29.4696C35.3852 30.4447 36.1887 31.9291 36.7446 33.4163C37.1362 34.458 37.4127 35.5372 37.6258 36.6281C37.813 37.5858 38.5416 44.2553 38.1845 44.4954C36.6322 45.5486 35.8691 46.7002 35.1174 48.4248C30.8407 47.629 26.6101 45.0423 24.7381 40.9914C23.2031 45.2448 19.0589 47.4091 14.9089 48.3408C14.4683 46.9722 13.4488 45.4763 12.2363 44.6864C11.6632 39.3161 12.6712 29.2642 19.3959 28.3296C19.9862 28.2486 20.9539 28.1618 21.3859 28.726C21.0979 28.6653 21.0086 29.2266 21.0086 29.3423C21 30.2277 22.1404 29.6924 22.4486 29.325C22.4774 29.2931 22.4947 29.2324 22.5148 29.1948ZM24.8303 31.8162C24.6143 32.1172 24.3148 32.4557 24.1593 32.7884C24.0527 32.6698 23.4278 32.2966 23.2463 32.1837L23.687 33.6044L22.5465 34.2265L23.5199 34.7618L23.0822 36.1478L24.1765 35.4967L24.8245 36.4603L25.4351 35.572L26.7397 36.0262L26.1176 34.5911L27.2437 34.0471L26.3336 33.6189L26.5726 32.2647L25.4034 32.9013L24.8303 31.8162Z" fill="black"></path>
  <path d="M8.43765 28.3442C8.93875 29.3888 9.88913 29.9038 11.0699 30.1035L10.9547 30.7776C9.64434 30.5549 8.45492 29.953 7.82422 28.6394L8.43765 28.3442Z" fill="black"></path>
  <path d="M7.30586 31.6631C7.30586 31.6631 7.56794 31.8887 7.99993 32.1752C8.44055 32.4674 9.04822 32.8204 9.73365 33.0722L9.50037 33.7116C8.63063 33.3905 7.57658 32.7973 6.86523 32.1781L7.30586 31.6602V31.6631Z" fill="black"></path>
  <path d="M7.1622 35.0977C7.1622 35.0977 7.40411 35.3349 7.7929 35.6214C8.19034 35.9136 8.72024 36.2406 9.28471 36.4229L9.07736 37.0739C8.26234 36.8135 7.30332 36.1943 6.68701 35.5867L7.1622 35.0977Z" fill="black"></path>
  <path d="M7.50184 39.0762C7.50184 39.0762 8.10374 39.7648 8.88132 39.7561L8.88997 40.439C8.20742 40.4477 7.43272 40.0484 6.98633 39.5218L7.50184 39.0762Z" fill="black"></path>
  <path d="M39.1323 29.9677C39.1323 29.9677 39.5413 29.8462 40.1201 29.6002C40.7048 29.3514 41.4564 28.9781 42.1361 28.4775L42.5364 29.0273C41.6494 29.6812 40.3937 30.3062 39.3224 30.6187L39.1323 29.9648V29.9677Z" fill="black"></path>
  <path d="M40.1143 33.3614C40.1344 33.3614 42.0812 33.1357 43.0748 32.4297L43.4665 32.9881C42.6486 33.5668 41.1885 33.9314 40.1891 34.0442L40.1143 33.3643V33.3614Z" fill="black"></path>
  <path d="M40.8516 36.2233C40.8516 36.2233 41.1972 36.2031 41.6839 36.0786C42.1821 35.9513 42.8157 35.7198 43.3744 35.3003L43.7805 35.8501C43.023 36.4143 41.8423 36.857 40.889 36.9062L40.8516 36.2233Z" fill="black"></path>
  <path d="M41.0415 39.6375C41.0415 39.6375 41.2661 39.6317 41.6348 39.5362C42.0178 39.435 42.5621 39.2353 43.1669 38.8418L43.5355 39.4147C42.9077 39.8256 41.8392 40.3146 41.053 40.3204L41.0415 39.6375Z" fill="black"></path>
  <path d="M32.7017 19.123C32.7017 19.123 32.7017 19.1259 32.7017 19.1288C32.7247 19.1288 32.7189 19.1288 32.7017 19.123Z" fill="black"></path>
  <path d="M32.4566 19.1085C32.5142 19.0998 32.6554 19.1143 32.6986 19.123C32.831 18.8625 31.3853 18.3822 31.1981 18.3215C29.4471 17.7457 27.1288 17.2885 25.2885 17.3088C23.1343 17.3348 20.8649 17.656 18.7942 18.2752C18.6618 18.3157 17.7402 18.579 18.008 18.9204C18.4515 18.9522 18.8317 19.1635 19.0045 19.5859C19.2118 20.0952 19.5517 21.5708 19.2896 22.0569C18.8605 22.8584 18.9958 23.0262 18.1463 23.6744C18.679 23.4371 19.5632 23.087 20.1334 23.1044C20.5193 23.1159 20.9715 23.2838 21.3459 23.3764C21.3862 23.385 21.4236 23.3966 21.4639 23.4053C21.4985 25.3757 28.4449 24.6263 28.7674 23.4979C28.7934 23.4111 28.802 23.3301 28.8049 23.2577C30.3169 23.0725 31.7856 23.0812 32.6554 23.8277C31.5811 23.1536 30.7805 21.5593 31.2903 20.289C31.4631 19.8608 31.9757 19.1895 32.4538 19.1085H32.4566ZM28.6379 23.3677C28.4391 23.9174 26.6421 24.3138 25.3864 24.363C24.1279 24.4122 22.734 24.4643 21.9132 23.8596C21.0895 23.2548 22.1609 22.4157 22.0601 21.9094C21.9219 21.2236 22.495 21.3567 22.495 21.3567C22.495 21.3567 22.9615 21.6779 22.6044 21.9701C22.4028 22.1322 22.1868 22.815 22.3452 23.168C22.4748 23.4545 22.541 23.8422 25.1416 23.7814C28.1713 23.712 28.0532 22.6877 27.8459 22.4157C27.6385 22.1466 27.5608 21.5998 27.8689 21.5622C28.1742 21.5245 28.2145 22.0714 28.1828 22.2768C28.1511 22.4823 28.8337 22.815 28.6379 23.3648V23.3677Z" fill="black"></path>
  <path d="M24.5627 47.7249C24.7125 47.6873 24.9976 47.67 24.9602 47.9043C24.9141 48.185 24.4245 48.376 24.5195 47.9304L24.5627 47.7249Z" fill="black"></path>
  <path d="M23.5372 47.9387C23.5257 47.0475 24.2371 46.3184 25.1212 46.3068C26.0082 46.2952 26.734 47.0099 26.7455 47.8982C26.757 48.7894 26.0485 49.5185 25.1615 49.5301C24.2745 49.5417 23.5488 48.827 23.5372 47.9358V47.9387ZM23.9865 48.0515C23.9952 48.7199 24.5423 49.2552 25.2076 49.2494C25.8729 49.2408 26.4057 48.691 26.397 48.0226C26.3884 47.3542 25.8441 46.8189 25.1759 46.8247C24.5107 46.8334 23.9779 47.3831 23.9836 48.0515H23.9865Z" fill="black"></path>
  </g>
  </g>
  <defs>
  <clipPath id="clip0_3335_4423">
  <rect width="106.808" height="135.333" fill="white" transform="translate(-29.1855 -8.63428)"></rect>
  </clipPath>
  </defs>
</svg>